<?xml version="1.0" encoding="utf-8"?>
<!-- Generator: Adobe Illustrator 14.0.0, SVG Export Plug-In . SVG Version: 6.00 Build 43363)  -->
<!DOCTYPE svg PUBLIC "-//W3C//DTD SVG 1.1//EN" "http://www.w3.org/Graphics/SVG/1.1/DTD/svg11.dtd">
<svg version="1.1" id="svg2" xmlns:svg="http://www.w3.org/2000/svg"
	 xmlns="http://www.w3.org/2000/svg" xmlns:xlink="http://www.w3.org/1999/xlink" x="0px" y="0px" width="744.095px"
	 height="1052.363px" viewBox="0 0 744.095 1052.363" enable-background="new 0 0 744.095 1052.363" xml:space="preserve">
<g id="layer1" transform="translate(-18,0)">
	<path id="path2830" d="M253.906,47.594c-9.871,0.145-19.812,7.641-27.5,27.25c-7.141,20.514-9.641,25.319-32.375,61.875
		c-34.47,55.423-37.767,60.159-44.969,65.344c-10.367,7.462-33.656,27.476-33.656,28.906c0,6.013,24.661-0.506,34.281-9.062
		l4.406-3.938l-4.219,8.438c-7.755,15.608-66.269,102.018-70.344,103.875c-5.454,2.485-35.248,26.435-35.812,28.781
		c-0.259,1.076,0.789,2.264,2.312,2.625c3.572,0.847,11.53-0.443,13.406-2.156c0.801-0.731,2.659-1.344,4.188-1.344
		c3.298,0,7.62-2.279,15.438-8.188c5.411-4.089,6.448-4.261,17.625-3.625c19.386,1.104,24.994-4.291,19.781-18.969
		c-1.4-3.941-2.594-8.266-2.594-9.625c0-3.871,10.098-14.062,23.656-23.906c22.078-16.03,42.125-40.272,53.062-64.125l3.719-8.188
		l21.469,0.781c27.756,0.99,66.663,5.933,100.375,12.688c31.158,6.243,56.062,7.22,67.312,2.719
		c8.449-3.381,18.65-15.043,27.75-31.875c8.545-15.806,18.353-27.725,28.438-34.531c3.803-2.566,7.293-4.688,7.719-4.688
		s3.706-1.326,7.312-2.969c9.824-4.475,32.451-9.813,36.938-8.688c2.634,0.661,6.07,4.369,10.531,11.312
		c3.642,5.668,10.894,15.625,16.094,22.156s8.924,11.92,8.281,11.938c-0.643,0.017-5.678,0.657-11.156,1.469s-17.29,1.95-26.219,2.5
		l-16.219,1c-5.328-4.337-5.424-12.197-9.625-9.625c-0.622,0,1.574,8.744,1.406,12.438c-0.266,5.838,0.016,6.159-1.027,10.623
		c-0.874,3.74-5.881,8.657-8.782,8.921c-8.889,0.811-4.385,3.231-8.628,3.362c-2.41,0.886-2.835,4.099,0,3.812
		c0.06,0.046,0.094,0.078,0.156,0.125l1.125,0.844l0.75,7.062c0.61,5.751,0.922,7.392,1.594,8.719
		c1.256,2.48,2.812,4.088,5.219,5.406l2.188,1.219l0.25,2.375l0.25,2.344l-1.562,1.344c-4.163,3.542-5.001,6.302-4.312,14.469
		c0.471,5.579,0.479,5.822-0.344,7.031c-1.501,2.208-0.433,4.928,1.219,3.094c0.627-0.696,0.695-0.661,1.344,0.531
		c0.371,0.683,1.162,1.546,1.781,1.938c1.365,0.864,4.539,1.511,6.469,1.312c1.098-0.113,1.497,0.011,1.75,0.594
		c0.553,1.273,1.872,0.619,2.25-1.125c1.219-5.622,0.025-20.081-2.125-25.75c-1.501-3.956-1.976-8.81-1.281-12.906
		c0.456-2.693,0.413-4.044-0.281-11c-0.566-5.675-0.949-8.276-1.656-10.844c1.66-0.647,3.414-1.368,5.375-2.25
		c6.951-7.441,9.867-7.356,50.75-7.344c29.787,0.009,36.771,0.149,41.656-2.062c12.755-7.402,4.968-20.59-0.656-30.562
		c-11.501-19.764-24.181-40.387-27.5-63.281c-0.129-9.718,7.418-15.897,16.625-16.188c11.687,0.056,17.732,7.803,17.375,19.812
		c-0.3,6.033-0.159,8.532-10.281,10.844c9.332,3.673,24.021-1.007,28.344-7.969c8.093,9.313,11.248,21.844,10.344,34.812
		c-0.549,7.872-5.392,14.333-11.062,12.562c-2.91-0.909-2.916-0.951,0.188,2.031c3.323,3.193,8.315,4.759,11.812,3.688
		c5.206-1.595,10.194-6.772,11.969-12.469c2.283-7.287,2.542-10.352,2.344-19.156c6.37,14.766,3.528,33.136-8.312,39.312
		c-3.729,1.945-6.038,2.562-9.438,2.438c-2.48-0.091-4.382,0.064-4.219,0.375c0.288,0.549,6.297,1.894,9.25,2.062
		c5.967,0.34,13.907-5.377,16.125-11.625l1.312-3.688l-0.094,3.594c-0.141,4.513-3.577,9.49-8.812,12.812
		c-7.302,4.634-15.365,3.175-23.562-4.219l-3.938-3.531l2.438,4.031c3.068,5,9.072,9.563,13.406,10.156
		c9.154,1.252,21.067-3.163,25.781-9.531c3.212-4.339,5.525-12.998,5.656-21.219c0.088-5.513,0.218-5.854,1.094-3.062
		c1.352,4.306,2.136,12.113,1.656,16.219c-0.613,5.256-3.193,13.708-4.969,16.281c-2.475,3.586-12.791,8.482-22.781,10.781
		c-4.524,1.041,3.98,0.726,10.031-0.375c9.062-1.649,18.262-7.113,23.062-13.656c6.051-8.247,7.454-21.058,4.438-39.938
		c-1.732-10.843,0.094-6.68,2.219,5.062c4.33,23.919-0.765,41.574-14.656,50.594c-2.883,1.872-5.107,3.678-4.906,4.062
		c0.752,1.435,14.755-6.756,19.219-11.25c7.759-7.811,9.598-13.959,9.031-30.219c-0.399-11.474-1.647-19.841-4.156-27.938
		c-3.048-9.835-2.141-9.722,2.438,0.219c3.439,7.468,5.399,10.653,8.594,14.219c5.552,6.198,13.525,11.998,18.938,13.688
		c9.056,2.827,22.517-0.104,27.344-5.938c2.678-3.236,5.201-9.171,5.219-12.25c0.009-1.484-0.607-0.596-1.812,2.656
		c-2.242,6.052-3.929,8.034-9.344,10.844c-7.755,4.023-19.286,2.624-27.719-3.312c-2.496-1.757-3.673-2.689-2.625-2.094
		s4.731,2.024,8.188,3.156c13.209,4.328,26.607-2.371,29.156-14.531c1.313-6.268,0.427-7.076-1.188-1.094
		c-4.232,15.687-25.164,17.533-41.375,3.656c-6.938-5.939-8.823-8.675-3.062-4.469c9.186,6.706,20.265,9.56,27.875,7.188
		c7.685-2.395,12.695-11.664,11.281-20.75c-0.938-6.032-1.662-7.115-1.375-2.031c0.831,14.7-21.01,20.831-35,9.812
		c-8.634-6.8-13.195-14.167-17-27.406l-2.344-8.125l3.344,6.156c6.317,11.725,16.521,19.602,24.938,19.125
		c2.446-0.139,6.144-1.211,8.688-2.531c3.97-2.06,4.471-2.684,5.531-6.469c0.647-2.31,0.78-5.646,0.25-7.375
		c-1.332-4.345-5.674-7.82-8.812-7.062c-4.284,1.034-5.052,7.48-1,8.344c1.287,0.274,1.302-0.036,0.188-1.438
		c-2.517-3.166,2.311-5.923,5.031-2.875c2.08,2.331,2.266,6.642,0.344,8.812c-2.484,2.806-8.166,3.815-12.219,2.156
		c-7.968-3.261-12.122-11.512-14.938-29.594c-0.037-13.842,0.429-34.341-29.219-43.375c5.209-0.463,16.205,1.367,27.125,9.688
		c-10.581-13.274-24.802-14.173-42.188-14.5c-2.109-0.001-12.476,1.457-16.625,4.406c-11.735,8.344-17.257,6.894-23.062-6.125
		c-0.38-0.851-1.314-0.495-2.156,0.781c-0.834,1.264-2.584,3.658-3.906,5.344c-2.403,3.065-2.406,3.065-4.781,0
		c-2.353-3.035-2.418-3.013-5.344,0.781c-2.953,3.829-2.966,3.821-3,0.375c-0.035-3.556-2.199-4.618-3.875-1.906
		c-0.522,0.846-2.698,1.101-4.844,0.562c-4.453-1.118-6.544,1.151-6.594,7.094c-0.019,2.107-0.791,6.491-1.688,9.719
		c-2.206,7.943-7.815,10.413-20.875,13.094c-9.904,2.034-12.745,3.669-27.125,0.906c-9.859-3.721-10.043-4.744-20.156-6.25
		c-16.107,6.625-18.86,18.385-16.281,30.312c1.203,5.565-17.169,19.49-24.844,24.156c-3.565,2.167-7.838,4.764-9.469,5.781
		c-12.316,7.682-20.084,10.229-31.375,10.312c-14.651,0.109-16.177-0.891-32.094-20.938c-14.784-18.621-59.618-64.394-72.688-74.219
		C269.198,51.822,261.583,47.481,253.906,47.594z M256,105.188l11.594,18.875c12.698,20.719,24.718,42.511,23.844,43.188
		c-0.308,0.238-11.938,1.633-25.844,3.094c-37.75,3.964-63.49,9.107-73.906,14.781c-3.674,2.001-5.781,1.8-5.781-0.531
		c0-2.504,13.753-15.792,23.75-22.938c13.729-9.812,28.887-27.436,41.469-48.312L256,105.188z M457.844,232.875
		c-0.033,1.318-0.059,5.139-0.062,9.781c-0.005,5.246-0.065,9.582-0.125,9.656s-0.372-1.172-0.688-2.781
		c-0.898-4.578-3.029-9.058-6.344-13.281c-0.362-0.462-0.671-0.976-0.875-1.375C451.776,234.631,454.441,234.041,457.844,232.875z
		 M460.094,235.094c0.402,0.001,1.133,3.657,1.625,8.688c0.677,6.917-0.045,11.674-1.875,12.5c-0.409,0.185-0.68-1.055-0.438-1.969
		c0.057-0.216,0.108-1.954,0.125-3.844c0.032-3.679,0.204-12.265,0.281-14.062C459.851,235.515,459.96,235.093,460.094,235.094z
		 M449.313,237.969c0.193-0.043,0.571,0.353,1.406,1.344c2.498,2.965,3.605,5.508,4.75,11c0.577,2.771,1,5.124,0.938,5.219
		c-0.209,0.317-3.166-1.793-4.156-2.969c-0.538-0.639-1.222-1.742-1.5-2.469c-0.651-1.703-1.898-10.479-1.656-11.625
		C449.158,238.163,449.197,237.995,449.313,237.969z M517.125,238.594c-2.183-0.003-4.38,0.016-6.594,0.031
		c-17.708,0.125-35.373,0.81-35.781,1.969c-0.832,2.36-5.771,48.957-9.906,93.094c-1.697,18.121-4.086,43.266-5.312,55.906
		c-4.255,43.854-6.036,108.547-4.062,147.781c1.998,39.721,3.127,50.115,8.656,78.562c7.083,36.447,17.111,58.48,35.438,77.906
		c15.042,15.945,33.144,26.707,51.531,30.625c10.636,2.266,38.961,0.689,48.562-2.719c37.663-13.363,67.568-43.062,83.75-83.125
		c9.131-22.605,19.301-63.646,21.531-87l0.938-9.688l-12.031,0.469l-12.031,0.438l-1.844,9.969
		c-4.9,26.303-17.766,45.105-37.938,55.438c-7.169,3.672-23.691,7.34-33.281,7.375c-11.325,0.043-30.401-5.605-39.562-11.688
		c-27.074-17.977-38.592-43.725-41.031-91.75c-2.084-41.019,8.241-190.034,18-260.219c0.801-5.759,1.04-11.102,0.562-11.875
		C546.097,239.087,532.402,238.613,517.125,238.594L517.125,238.594z M280.25,238.656c-19.757,0-36.266,0.524-36.656,1.156
		s-1.445,11.482-2.375,24.125c-11.103,151.017-12.51,164.618-21.5,207.656c-11.763,56.308-19.985,74.853-55.625,125.656
		c-10.938,15.592-21.505,31.637-23.531,35.625c-8.699,17.125-10.904,41.492-5.125,56.938c5.703,15.244,21.816,29.674,38.094,34.062
		c9.694,2.615,24.185,2.564,33.188-0.156c8.998-2.719,19.675-10.928,29.188-22.375c9.039-10.877,22.246-38.037,27.906-57.344
		c12.99-44.309,28.644-133.971,38.5-220.687c2.629-23.131,13.844-169.892,13.844-181.094v-3.562H280.25z M459.656,258.656
		c0.134-0.063,0.312,0.063,0.5,0.438c0.336,0.67,0.17,2.929-0.219,2.969c-0.184,0.019-0.404-0.722-0.5-1.656
		C459.335,259.404,459.434,258.761,459.656,258.656z M460.625,264.719c0.079-0.025,0.178-0.011,0.312,0
		c0.939,0.076,2.213,2.301,3.125,5.438c0.869,2.988,1.728,12.156,1.312,14.062c-0.141,0.644-0.275,1.026-0.312,0.844
		s-0.991-4.4-2.125-9.344s-2.211-9.456-2.375-10.031C460.382,265.054,460.389,264.793,460.625,264.719z M457.625,265.688
		l-0.031,1.094c-0.023,0.593-0.066,2.526-0.094,4.312c-0.039,2.526-0.322,3.969-1.25,6.438c-0.655,1.746-1.576,3.699-2.031,4.375
		l-0.812,1.25l-0.25-2.844c-0.713-7.945,0.104-11.172,3.531-13.875L457.625,265.688L457.625,265.688L457.625,265.688z
		 M459.375,268.438l0.562,2.781c0.317,1.541,1.2,5.751,1.969,9.344s1.48,7.168,1.562,7.938c0.137,1.3,0.049,1.425-1.156,1.781
		c-2.443,0.723-5.787-0.023-6.969-1.531c-1.291-1.647-1.266-2.159,0.375-5.844c2.167-4.867,3.238-8.469,3.469-11.75L459.375,268.438
		z"/>
</g>
</svg>
